<svg height="512" viewBox="0 0 1024 1024" xmlns="http://www.w3.org/2000/svg"><path d="m512 12c-276.142 0-500 223.858-500 500s223.858 500 500 500 500-223.858 500-500-223.858-500-500-500zm206.111 478.641c42.847 0 77.607 34.76 77.607 77.607s-34.76 77.607-77.607 77.607c-42.952 0-77.607-34.76-77.607-77.607s34.76-77.607 77.607-77.607zm-326.181-229.042c7.561-21.213 24.364-38.016 45.577-45.577 7.771-2.835 16.173-4.306 24.994-4.306 41.272 0 74.772 33.395 74.772 74.772 0 41.271-33.5 74.772-74.772 74.772-41.271 0-74.772-33.5-74.877-74.667 0-8.506 1.47-17.012 4.306-24.994zm-44.422 128.121c2.94-6.511 5.356-13.862 11.447-18.168 5.251-3.57 11.972-5.146 18.168-5.671 18.693-1.68 38.961 2.52 57.234 7.351l3.466.945c1.05.315 1.995.63 3.045.945 4.201 1.365 8.191 3.255 11.237 6.196.105 0 73.092 69.311 73.092 69.311 3.045 2.73 6.511 5.041 10.397 6.511l82.963 31.715c13.967 5.356 21.003 21.003 15.647 34.866-4.096 10.817-14.282 17.433-25.204 17.433-3.36 0-6.616-.63-9.661-1.785l-93.885-35.811c-3.361-1.26-6.301-3.255-8.926-5.671l-34.34-32.555c0 .315.105.63.21.84 9.136 31.925-29.195 43.267-41.482 66.16-3.571 6.406-6.826 13.337-9.241 20.478h-130.328c10.502-24.994 48.623-124.234 66.161-163.09zm-123.395 346.974v-37.596c7.666 5.986 17.118 9.346 26.884 9.346h349.18l27.934 28.249h-403.998zm586.518.105h-145.448c-4.411 0-8.716-.84-12.812-2.52-4.201-1.785-8.086-4.306-11.237-7.561l-34.13-34.55h-356.007c-14.912 0-26.884-12.077-26.884-26.884v-69.206c0-14.912 12.077-26.884 26.884-26.884 0 0 295.097-.21 316.31-.21 12.392 0 16.383 2.835 23.314 9.872l88.844 90.209h130.64c18.588 0 34.025 14.702 34.341 33.395.315 18.902-14.912 34.339-33.815 34.339z"/></svg>